Patient4_TMGait_0pt7_01_right_24_EMG.mot
version=1
nRows=40
nColumns=33
inDegrees=no
endheader
time	1LAddLong	2LGlutMax	3LGlutMed	4LIliopsoas	5LSemiMemb	6LBicFemLong	7LRecFem	8LVastMed	9LVastLat	10LGasMed	11LTibAnt	12lTibPost	13LPeroneusLong	14LSol	15LExtDigLong	16LFlexDigLong	17RAddLong	18RGlutMax	19RGlutMed	20RIliopsoas	21RSemiMemb	22RBicFemLong	23RRecFem	24RVastMed	25RVastLat	26RGasMed	27RTibAnt	28RTibPost	29RPeroneusLong	30RSol	31RExtDigLong	32RFlexDigLong
27.472	0.001831	0.12207	0.084381	0.030823	0.029297	0.001831	0.4039	0.018005	0.032501	0.04776	-0.081329	0.003815	-0.16983	-0.12177	0.14801	-0.006714	-0.052795	-0.22598	-0.35492	-0.08667	-0.14938	-0.040741	0.336	0.27802	-0.18555	0.045776	-0.23956	-0.027008	1.05	0.19806	-0.001526	-0.008698
27.473	-0.003967	0.14587	0.041962	0.040283	0.019073	0.030518	0.37979	0.022125	0.028229	0.034943	-0.091248	0.010681	-0.10788	-0.062866	0.1297	-0.002594	-0.075378	-0.17059	-0.21194	-0.14282	-0.2121	0.19455	0.40466	0.24262	-0.16174	0.029602	-0.13702	-0.083313	0.30548	0.11963	-0.005188	-0.010681
27.474	-0.014954	0.15198	0.042267	0.040894	0.024414	0.060577	0.3537	0.017853	0.025635	0.036926	0.14725	0.009155	-0.079651	-0.046234	-0.21973	-0.002747	-0.081177	-0.12787	-0.023956	-0.049133	-0.016022	0.271	0.38437	0.23743	-0.092773	-0.025482	-0.097351	-0.15717	0.57983	-0.055389	-0.002594	-0.018463
27.475	-0.011749	0.11902	0.049744	-0.003204	0.022278	0.075378	0.31921	0.023804	0.02594	0.061035	0.27329	0.007477	-0.14542	-0.065308	-0.026398	-0.003204	-0.1294	-0.14496	-0.41382	0.15121	0.1532	0.27985	0.37933	0.30548	-0.055237	-0.14847	-0.054932	0.006256	0.11917	-0.035858	-0.003815	-0.020905
27.476	-0.007172	0.071106	0.042419	0.001984	0.019073	0.04715	0.3447	0.025787	0.023041	0.071411	0.29358	0.011139	-0.21011	-0.06424	-0.02594	-0.005951	-0.077515	-0.070496	-0.57495	0.2298	0.11902	0.29312	0.35812	0.30075	-0.039825	-0.075226	-0.017242	0.11093	-0.11093	0.4216	-0.001984	-0.023346
27.477	-0.011902	0.045471	0.047302	0.006561	0.0177	0.06958	0.29434	0.025177	0.016785	0.077515	0.14969	0.018463	-0.19241	-0.010681	0.43961	-0.01358	-0.0383	-0.044708	-0.37918	0.066376	0.081787	0.41336	0.43411	0.25543	0.02594	-0.019379	-0.059509	-0.1384	0.17502	0.29633	-0.001678	-0.02243
27.478	-0.011597	0.011597	-0.008545	0.024567	0.01709	0.051422	0.31891	0.027771	0.016022	0.039215	-0.17059	-0.000763	-0.11292	0.039825	0.56366	-0.013733	-0.05722	0.12024	-0.16525	-0.14175	-0.018463	0.41977	0.45929	0.27527	0.047607	-0.002899	-0.071411	-0.29694	0.14542	0.45853	-0.002594	-0.020142
27.479	-0.015106	-0.016937	-0.025482	0.00946	0.021515	0.042267	0.44998	0.019531	0.00885	0.019531	-0.1651	0.02121	-0.061035	0.041351	0.69183	-0.015717	-0.094757	0.17014	-0.40726	-0.2121	0.091553	0.29114	0.5278	0.17319	-0.000916	-0.024261	0.027313	0.12024	-0.37338	0.082703	-0.003815	-0.028687
27.48	-0.009308	-0.036163	0.035095	-0.012665	0.022888	0.030212	0.62912	0.022736	-0.005798	0.004578	-0.2327	0.012665	-0.059052	0.078583	-0.48675	-0.010681	-0.078888	0.12039	-0.63217	-0.13199	0.18555	0.15015	0.62241	0.062714	-0.023956	-0.06485	0.031738	0.007172	-0.54703	-0.30884	-0.002747	-0.018616
27.481	-0.010834	-0.033569	0.057373	0.006409	0.024872	0.018005	0.76462	0.03479	-0.002136	0.031433	-0.17593	0.010834	-0.16357	0.11627	-0.87311	-0.006866	-0.013123	0.05249	-0.44754	0.040894	0.16861	0.055237	0.67337	-0.069733	-0.069275	-0.017853	0.07782	-0.27496	-0.19608	-0.03418	-0.004578	-0.00885
27.482	-0.010681	-0.039063	0.019989	0.01236	0.026245	0.023956	0.6044	0.049744	-0.0177	0.053253	-0.080719	0.002594	-0.19333	0.10269	-0.69977	-0.01709	0.022278	0.063477	-0.31952	0.14236	0.27527	-0.15396	0.71549	-0.14145	-0.081482	-0.023804	0.16876	-0.005341	0.61539	0.22812	-0.001526	-0.006866
27.483	-0.004272	-0.010376	0.021057	0.003815	0.027618	0.002899	0.49042	0.04364	-0.033112	0.078888	-0.11719	0.017853	-0.22385	0.000763	0.61356	-0.006714	0.063934	0.14374	-0.46326	0.074615	0.20599	-0.27603	0.69855	-0.29694	-0.068817	-0.013123	0.18448	0.61844	0.7312	-0.36301	-0.005035	-0.00412
27.484	-0.004578	-0.00412	0.012665	0.006714	0.030823	0.00473	0.4657	0.04364	-0.028534	0.049591	-0.10895	0.018311	-0.19898	-0.026093	-0.10635	0.008392	0.02655	0.19287	-0.084686	0.075684	-0.46951	-0.1207	0.57556	-0.15839	-0.075378	0.011902	0.090027	0.26916	1.4438	-0.45959	0.000458	-0.005951
27.485	0	0.029297	0.012512	0.016022	0.037384	-0.000763	0.44281	0.024872	-0.02182	0.037231	0.15411	0.025482	-0.25787	0.016632	0.20691	-0.007019	-0.044403	0.14252	-0.50888	0.089722	-0.87051	-0.10605	0.36667	-0.16464	-0.09491	0.004272	-0.036774	0.12741	0.57678	0.057526	-0.005035	0.001984
27.486	0.005341	0.044556	-0.023956	0.025787	0.035858	0.004578	0.31235	0.026703	-0.009155	0.009766	0.23315	0.016327	-0.18295	0.12817	0.084229	-0.005493	-0.071869	0.15366	-0.38437	-0.0383	-0.32867	-0.095367	0.12085	-0.18188	-0.029755	-0.010223	-0.16586	0.030823	-0.103	0.28122	-0.002136	0.014191
27.487	0.005951	0.061646	-0.020905	0.007019	0.034943	0.006409	0.22201	0.011749	0.036469	-0.055084	0.034637	0.014648	-0.059357	0.1506	0.11444	0.012665	-0.038452	0.12039	0.38132	-0.018311	-0.067596	0.0177	-0.008698	0.1355	0.18799	-0.015259	-0.10468	0.002594	-0.26916	0.005341	-0.002441	-0.003357
27.488	0.007629	0.060272	-0.011749	-0.004578	0.033722	0.006714	0.088959	0.00412	0.06073	-0.042877	-0.15335	0.017548	0.059052	0.07309	-0.36789	-0.012665	0.00061	0.091095	-0.11108	0.004883	0.020447	0.31921	0.032043	0.18753	0.19577	0.001678	-0.003052	-0.003357	-0.026398	-0.26154	-0.001221	-0.005798
27.489	0.010681	0.093842	-0.005188	0.009918	0.04303	-0.020752	-0.15839	-0.014343	0.067444	0.015869	0.023804	0.00351	-0.069885	0.097046	-0.21439	-0.019379	0.007935	0.005798	-0.0737	-0.16571	-0.26459	0.62485	0.19775	0.23605	0.11856	0.024414	-0.088196	-0.005951	0.56305	-0.26611	-0.001678	0.011292
27.49	0.012207	0.077362	-0.00412	0.012207	0.043335	-0.011292	-0.26032	-0.007019	0.075989	0.056915	0.24796	0.003815	-0.15793	-0.005341	0.22736	-0.012512	-0.070496	-0.025635	0.10193	-0.35049	-0.42038	0.72647	0.2858	0.15289	0.060577	0.025177	0.12726	-0.002289	-0.79254	-0.25238	-0.004883	0.005646
27.491	0.007477	0.11704	-0.032043	0.014191	0.025787	-0.019836	-0.17273	-0.002136	0.046844	0.076294	0.06897	0.000763	-0.15289	-0.13763	0.23895	-0.015869	-0.099335	-0.22461	-0.47821	-0.31937	-0.32379	0.56259	0.2269	0.15182	0.053406	0.00885	0.23178	-0.036163	-0.60928	-0.12451	0.008087	0.002136
27.492	0.007324	0.10864	0.016785	0.021362	0.041809	-0.017242	-0.043182	-0.009766	0.039215	0.07431	-0.13306	0.006714	-0.10284	-0.15595	-0.047913	-0.013733	-0.069733	-0.33279	-0.79132	-0.11337	0.11902	0.080566	0.13809	0.26138	0.024872	-0.020905	0.38025	-0.024414	-0.37506	-0.22018	-0.004272	-0.009003
27.493	0.005493	0.12558	0.065002	-0.007019	0.047455	-0.018463	-0.12894	-0.018463	0.030823	0.076752	-0.1149	0.009613	-0.085449	-0.1059	-0.009766	-0.000916	-0.092773	-0.48431	-0.77164	0.30045	0.12146	-0.31967	0.079651	0.22476	0.014801	-0.014343	0.48096	-0.058746	0.000458	-0.26215	-0.001984	-0.005493
27.494	0.016785	0.10819	0.050201	0.001678	0.047913	-0.025635	-0.17288	-0.010681	0.009766	0.061035	0.027161	-0.008698	-0.092163	-0.039673	0.11261	-0.004883	-0.10147	-0.49545	-0.42358	0.43839	0.29083	-0.56259	0.052338	0.13458	0.031433	0.004883	0.27298	-0.041199	2.3026	-0.1857	-0.002441	-0.003052
27.495	0.045319	0.074615	-0.024261	-0.003662	0.042725	-0.017395	-0.058746	-0.001068	0.001831	0.045471	0.0914	-0.007782	-0.094452	0.062256	0.2385	0.008087	-0.019226	-0.57083	-0.38437	0.26108	0.03067	-0.75546	-0.018311	0.054016	0.063171	0.016632	0.15411	-0.046997	0.56564	-0.25085	-0.006714	0.00824
27.496	0.06012	0.082245	-0.048065	0.008392	0.045319	-0.019836	0.10452	-0.011902	-0.020142	0.072784	0.077972	-0.027466	-0.083923	-0.009308	0.17364	-0.00473	0.010986	-0.49972	-0.04715	0.13153	-0.12421	-1.2762	-0.11444	0.10269	0.1059	0.023346	0.26093	-0.0383	-2.3311	-0.22003	-0.003662	0.001984
27.497	0.019989	0.055084	-0.041809	-0.009918	0.056152	-0.02655	0.15595	0.001221	-0.041504	0.065308	0.001678	-0.013428	-0.05661	-0.050812	0.13428	0.003662	0.058289	-0.52094	0.37903	0.023041	-0.099792	-1.5047	-0.12131	0.17212	0.14145	0.02182	-0.18463	-0.023041	-0.86731	-0.20447	-0.001526	0.011139
27.498	0.008087	0.045624	-0.029144	-0.007172	0.047913	-0.037842	0.20508	0.001221	-0.06546	0.038452	-0.031128	-0.019989	-0.07309	-0.020294	0.004578	-0.002441	-0.023804	-0.58563	0.15335	0.099487	-0.007935	-1.4905	-0.22064	0.23972	0.1648	-0.004883	-0.046692	-0.03067	-0.25833	-0.063629	-0.004578	0.007629
27.499	0.007935	0.079041	-0.008545	0.011139	0.050659	-0.031433	0.26474	0.009003	-0.077515	0.026245	-0.08316	-0.024261	-0.059509	0.036469	-0.05188	0.013123	-0.080719	-0.41855	0.36194	0.056152	0.26108	-0.88303	-0.1976	0.19333	0.17425	-0.033112	0.26947	-0.030212	-3.0315	0.1358	-0.004272	0.014801
27.5	0.006714	0.058136	-0.08194	0.001831	0.050812	-0.039368	0.25085	-0.000916	-0.099945	0.031891	-0.013123	-0.0177	-0.035858	0.059814	-0.12009	-0.005493	-0.10773	-0.32211	1.0226	-0.12985	0.13367	-0.53513	-0.050201	0.030823	0.086365	-0.026245	0.066376	-0.022278	-0.13534	0.10727	-0.004578	0.013123
27.501	0.00824	0.093536	-0.054016	-0.001373	0.038452	-0.040436	0.17807	0.007782	-0.11948	0.039673	0.16464	-0.013733	-0.065613	0.07782	-0.1297	0.000916	-0.087128	-0.31982	0.7959	-0.12299	-0.14313	-0.31357	0.024719	-0.071259	-0.042419	-0.007629	-0.40802	-0.018463	2.202	0.067749	-0.002136	0.023804
27.502	0.004425	0.11322	-0.048828	0.009308	0.052643	-0.041656	0.10757	0.026703	-0.13611	0.052643	0.25925	-0.00946	-0.13382	0.048828	-0.046844	-0.00351	-0.10422	-0.31799	0.57037	-0.037079	-0.46677	0.045471	-0.041962	0.040283	-0.1355	0.008698	-0.42053	-0.011749	1.356	0.14328	-0.003662	0.015564
27.503	0.013275	0.103	-0.048065	-0.011597	0.05661	-0.031586	0.077362	0.014648	-0.12848	0.037994	0.17975	0.010986	-0.10727	0.03006	-0.060577	-0.007935	-0.10437	-0.37628	0.39673	0.092926	-0.49759	0.63629	-0.069733	0.074615	-0.090637	0.016937	-0.025787	-0.017395	-0.74783	0.21011	-0.012512	0.010071
27.504	0.009613	0.10666	-0.060577	-0.007629	0.049133	-0.028381	0.13947	0.021515	-0.12528	0.029602	-0.095673	0.00885	-0.07309	0.046387	-0.048523	-0.003662	-0.12146	-0.5191	0.036316	0.16937	0.31845	0.91156	-0.088959	0.14999	-0.006561	0.02655	0.000458	-0.009308	-0.24216	0.019836	-0.004272	0.000153
27.505	0.006256	0.097504	-0.0354	-0.00824	0.055084	-0.031128	0.11353	0.014038	-0.13199	0.030823	-0.07782	0.004425	-0.076447	0.06485	0.016022	0.008392	-0.11597	-0.5722	0.12344	0.000458	0.69	0.93475	-0.065155	0.1683	-0.012817	-0.007629	-0.026703	-0.000916	0.6514	0.13489	-0.002594	-0.005493
27.506	0.006409	0.068512	-0.025635	-0.001373	0.053864	-0.019989	0.006714	0.02182	-0.10757	0.042114	-0.065765	0.012817	-0.082245	0.082397	0.053253	0.003052	-0.070801	-0.71503	-0.022125	-0.015717	0.33981	0.70267	-0.03006	0.0354	-0.092468	-0.03067	-0.028992	-0.011444	0.96847	0.18066	-0.000458	-0.007935
27.507	0.003662	0.033264	0.002747	0.027924	0.05127	-0.038757	-0.020599	0.021515	-0.090027	0.03952	-0.036163	0.017242	-0.09491	0.068665	0.11444	0.003052	-0.013428	-0.89676	-0.11261	-0.040894	-0.079041	0.42709	-0.1442	-0.006714	-0.065155	0.011749	0.050201	-0.005035	-0.27985	0.16678	-0.005951	-0.01236
27.508	0.009918	-0.067291	-0.018921	0.026398	0.052643	-0.016632	0.1149	0.031281	-0.070343	0.046692	0.000458	0.020294	-0.07843	0.041199	0.073395	-0.000305	0.02533	-0.89157	-0.53925	-0.08667	-0.39551	-0.086365	-0.16434	-0.10666	-0.059509	0.034943	0.12711	-0.006409	-1.0359	0.097961	-0.002441	-0.00351
27.509	0.007782	-0.17075	-0.046997	0.027161	0.062256	-0.000763	0.15656	0.009308	-0.038605	0.045471	-0.013885	0.029297	-0.068359	0.034332	-0.037079	-0.017548	-0.014038	-0.94879	-0.28961	-0.10391	-0.076141	-0.37613	-0.16068	-0.11032	-0.006104	0.009613	-0.0177	-0.00412	0.36728	0.11108	-0.005798	-0.001984
27.51	0.011902	-0.22263	-0.084076	0.029297	0.051727	-0.015411	0.21652	0.000763	-0.014801	0.035095	-0.089722	0.029755	-0.030823	0.001221	0.025177	-0.018311	-0.11231	-0.86731	-0.65002	-0.04837	0.48462	-0.40482	0.003357	0.023499	-0.032196	-0.020599	-0.12024	-0.000458	0.53863	0.088196	0.002136	-0.006561
27.511	0.017548	-0.3122	-0.064545	0.024567	0.046234	0.012665	0.13687	-0.00412	-0.026855	0.020294	-0.094299	0.027161	0.026093	0.003204	0.24536	-0.007324	-0.13458	-0.71045	-0.19409	-0.11688	0.50537	-0.41306	-0.037231	0.10468	-0.075684	-0.048676	-0.039063	-0.000916	0.3186	0.10254	-0.002899	-0.008545
